<svg xmlns="http://www.w3.org/2000/svg" viewBox="0 0 24 24" width="24" height="24">
  <path fill="#61DAFB" d="M12 9.861a2.139 2.139 0 100 4.278 2.139 2.139 0 100-4.278zm-5.992 6.394c-.36-.667-.655-1.38-.879-2.121.223-.742.518-1.455.879-2.121.36.667.655 1.38.879 2.121-.224.742-.519 1.454-.879 2.121zm1.673-5.708a16.108 16.108 0 00-1.125 2.004c-.055.161-.105.326-.153.494a17.921 17.921 0 000 3.898c.048.168.098.333.153.494.352.71.725 1.39 1.125 2.004.636.82 1.259 1.454 1.878 1.909-1.582-1.2-2.956-3.436-3.817-6.175a9.524 9.524 0 010-4.267c.861-2.739 2.235-4.975 3.817-6.175-.619.455-1.242 1.09-1.878 1.909a16.108 16.108 0 00-1.125 2.004c-.055.161-.105.326-.153.494a17.919 17.919 0 000 3.898c.048.168.098.333.153.494.352.71.725 1.39 1.125 2.004.636.82 1.259 1.454 1.878 1.909-1.582-1.2-2.956-3.436-3.817-6.175a9.524 9.524 0 010-4.267c.861-2.739 2.235-4.975 3.817-6.175-.619.455-1.242 1.09-1.878 1.909zm9.638 5.708c-.36.667-.655 1.38-.879 2.121-.224-.742-.519-1.454-.879-2.121.36-.667.655-1.38.879-2.121.224.742.519 1.454.879 2.121zm-1.673-5.708c.636-.82 1.259-1.454 1.878-1.909-1.582 1.2-2.956 3.436-3.817 6.175a9.524 9.524 0 000 4.267c.861 2.739 2.235 4.975 3.817 6.175-.619-.455-1.242-1.09-1.878-1.909a16.108 16.108 0 01-1.125-2.004c-.055-.161-.105-.326-.153-.494a17.919 17.919 0 010-3.898c.048-.168.098-.333.153-.494.352-.71.725-1.39 1.125-2.004.636-.82 1.259-1.454 1.878-1.909-1.582 1.2-2.956 3.436-3.817 6.175a9.524 9.524 0 000 4.267c.861 2.739 2.235 4.975 3.817 6.175-.619-.455-1.242-1.09-1.878-1.909a16.108 16.108 0 01-1.125-2.004c-.055-.161-.105-.326-.153-.494a17.921 17.921 0 010-3.898c.048-.168.098-.333.153-.494.352-.71.725-1.39 1.125-2.004zM12 16.222a4.222 4.222 0 110-8.444 4.222 4.222 0 010 8.444z"/>
</svg>